<svg width="151" height="151" viewBox="0 0 151 151" fill="none" xmlns="http://www.w3.org/2000/svg">
<circle cx="75" cy="76" r="72" fill="white"/>
<path d="M34 118.375C34 118.125 34.7917 117.708 36.375 117.125C38.0417 116.542 40.0417 115.792 42.375 114.875C44.7917 113.875 47.375 112.667 50.125 111.25C52.9583 109.833 55.5417 108.125 57.875 106.125C60.2917 104.125 62.2917 101.792 63.875 99.125C65.5417 96.4583 66.375 93.4167 66.375 90C66.375 87.6667 65.6667 85.0833 64.25 82.25C62.8333 79.3333 61 76.4583 58.75 73.625C56.5 70.7917 53.875 68.0417 50.875 65.375C47.9583 62.625 45 60.2083 42 58.125C39 56.0417 36.0417 54.375 33.125 53.125C30.2917 51.875 27.7917 51.25 25.625 51.25C25.625 56.1667 25.8333 61.0833 26.25 66C26.75 70.8333 27.25 75.7083 27.75 80.625C28.25 85.5417 28.7083 90.4583 29.125 95.375C29.625 100.208 29.875 105.125 29.875 110.125C29.875 111.208 29.75 112.083 29.5 112.75C29.3333 113.417 28.4583 114.083 26.875 114.75L25.5 113.375L19.625 49.5C19.4583 49.5 19.0417 49.3333 18.375 49C17.7917 48.5833 17.1667 48.1667 16.5 47.75C15.8333 47.25 15.2083 46.7083 14.625 46.125C14.0417 45.5417 13.75 45 13.75 44.5C13.75 44 14.125 43.375 14.875 42.625C15.7083 41.875 16.625 41.1667 17.625 40.5C18.625 39.75 19.5833 39.125 20.5 38.625C21.4167 38.0417 22.0833 37.75 22.5 37.75C23.75 37.75 24.5 38.0417 24.75 38.625C25.0833 39.2083 25.25 39.9167 25.25 40.75C25.25 41.5 25.2917 42.3333 25.375 43.25C25.4583 44.0833 25.9583 44.7083 26.875 45.125C29.7917 46.7917 32.875 48.5417 36.125 50.375C39.375 52.125 42.625 54.0833 45.875 56.25C49.2083 58.3333 52.3333 60.5833 55.25 63C58.25 65.4167 60.875 68.0833 63.125 71C65.375 73.8333 67.1667 76.9167 68.5 80.25C69.8333 83.5 70.5 87.0833 70.5 91C70.5 94.6667 69.5 98.375 67.5 102.125C65.5 105.792 62.9583 109.125 59.875 112.125C56.7917 115.042 53.3333 117.458 49.5 119.375C45.75 121.208 42.0833 122.125 38.5 122.125C37.4167 122.125 36.375 121.792 35.375 121.125C34.4583 120.458 34 119.542 34 118.375ZM79.125 51C78.5417 50.0833 78.125 49.0417 77.875 47.875C77.625 46.7083 77.4583 45.5417 77.375 44.375C77.375 43.2083 77.375 42.0833 77.375 41C77.4583 39.8333 77.5 38.7917 77.5 37.875V36.125C77.5 35.2917 77.5 34.4583 77.5 33.625C77.5833 32.7083 77.625 31.8333 77.625 31C77.7083 30.1667 77.75 29.5833 77.75 29.25C77.8333 29 78.25 28.6667 79 28.25C79.75 27.8333 80.2917 27.6667 80.625 27.75C82.0417 28.0833 82.875 28.7917 83.125 29.875C83.375 30.9583 83.4583 32.125 83.375 33.375C83.2917 34.5417 83.25 35.5833 83.25 36.5C83.3333 37.4167 83.875 37.875 84.875 37.875H102.25C104.083 37.875 105.583 38.4167 106.75 39.5C107.917 40.5833 108.833 41.9167 109.5 43.5C110.167 45.0833 110.583 46.7083 110.75 48.375C111 50.0417 111.125 51.5 111.125 52.75C111.125 56.5 110.542 60.25 109.375 64C108.208 67.6667 106.708 71.2917 104.875 74.875C103.042 78.4583 101.125 81.9167 99.125 85.25C97.125 88.5 95.2917 91.5833 93.625 94.5V96.75C97.4583 96.75 100.667 96.5833 103.25 96.25C105.917 95.9167 108.417 95.5833 110.75 95.25C113.167 94.8333 115.667 94.4583 118.25 94.125C120.917 93.7917 124.208 93.625 128.125 93.625H130.625C131.792 93.625 133.042 93.6667 134.375 93.75C135.708 93.75 136.917 93.75 138 93.75H140.5C141.25 94.0833 141.708 94.5417 141.875 95.125C142.042 95.625 142.125 96.1667 142.125 96.75C142.125 97.75 141.917 98.6667 141.5 99.5C141.167 100.25 140.375 100.792 139.125 101.125C136.042 99.7917 133 99 130 98.75C127 98.5 124 98.5 121 98.75C118.083 99 115.208 99.4583 112.375 100.125C109.625 100.792 106.833 101.375 104 101.875C101.167 102.292 98.2917 102.625 95.375 102.875C92.5417 103.125 89.6667 102.958 86.75 102.375C86.75 105.042 86.9167 107.625 87.25 110.125C87.6667 112.625 87.875 115.208 87.875 117.875C87.875 118.708 87.7917 119.625 87.625 120.625C87.5417 121.625 86.9167 122.125 85.75 122.125C85.25 122.125 84.7917 122.042 84.375 121.875C83.9583 121.625 83.6667 121.167 83.5 120.5C83.4167 120.25 83.2917 119.625 83.125 118.625C82.9583 117.625 82.7917 116.625 82.625 115.625C82.5417 114.542 82.4167 113.542 82.25 112.625C82.1667 111.625 82.0833 110.875 82 110.375C81.9167 108.875 81.7917 106.625 81.625 103.625C81.4583 100.542 81.25 97.0417 81 93.125C80.8333 89.125 80.625 85 80.375 80.75C80.2083 76.4167 80 72.2917 79.75 68.375C79.5833 64.4583 79.4583 60.9583 79.375 57.875C79.2917 54.7917 79.2083 52.5 79.125 51ZM83.5 49.5C83.5833 50.75 83.6667 52.625 83.75 55.125C83.9167 57.5417 84.0833 60.3333 84.25 63.5C84.5 66.6667 84.7083 70 84.875 73.5C85.125 76.9167 85.3333 80.2083 85.5 83.375C85.75 86.4583 85.9167 89.2917 86 91.875C86.1667 94.375 86.2917 96.2083 86.375 97.375C88.375 94.2917 90.5417 90.9583 92.875 87.375C95.2083 83.7083 97.4167 79.9583 99.5 76.125C101.583 72.2083 103.292 68.25 104.625 64.25C106.042 60.25 106.75 56.3333 106.75 52.5C106.75 50.9167 106.417 49.5 105.75 48.25C105.167 46.9167 104.333 45.8333 103.25 45C102.25 44.0833 101.042 43.4167 99.625 43C98.2083 42.5 96.75 42.25 95.25 42.25C94.5 42.25 93.4583 42.3333 92.125 42.5C90.7917 42.6667 89.4583 42.9583 88.125 43.375C86.875 43.7917 85.7917 44.375 84.875 45.125C83.9583 45.875 83.5 46.8333 83.5 48V49.5Z" fill="#0038FF"/>
</svg>
